<?xml version="1.0" encoding="UTF-8"?>
<svg version="1.1" xmlns="http://www.w3.org/2000/svg" width="107" height="132">
<path d="M0 0 C2.6421914 0.03447612 5.28105132 0.02055213 7.92333984 0.0012207 C22.69470787 0.01230928 34.17320346 2.49371572 45.51318359 12.59692383 C55.30351322 22.66697715 58.8698434 33.44011376 58.73193359 47.30004883 C58.17056421 55.7606874 56.27142793 63.54159602 51.51318359 70.59692383 C50.85318359 70.59692383 50.19318359 70.59692383 49.51318359 70.59692383 C49.28630859 71.33942383 49.05943359 72.08192383 48.82568359 72.84692383 C47.25422749 76.13949852 45.51322643 77.57189491 42.51318359 79.59692383 C41.85318359 79.59692383 41.19318359 79.59692383 40.51318359 79.59692383 C39.52318359 81.57692383 39.52318359 81.57692383 38.51318359 83.59692383 C40.58309474 86.46295464 42.36774603 88.49996545 45.32568359 90.47192383 C51.33300431 94.47680431 56.5987121 99.54968081 59.20068359 106.40942383 C60.37565406 114.63421709 59.0386659 119.94900494 54.26318359 126.84692383 C49.90017584 131.20993158 45.72060509 132.74209039 39.63818359 133.03442383 C28.32398729 132.55731916 20.97212429 125.40640218 13.51318359 117.59692383 C5.09507539 108.34259921 5.09507539 108.34259921 3.51318359 103.59692383 C2.85318359 103.59692383 2.19318359 103.59692383 1.51318359 103.59692383 C1.47451172 104.83055664 1.47451172 104.83055664 1.43505859 106.08911133 C0.99845 114.68236229 0.12021012 123.18770398 -6.11181641 129.65942383 C-10.74874509 133.44218144 -14.94853078 132.85099564 -20.73681641 132.90942383 C-21.67912109 132.93842773 -22.62142578 132.96743164 -23.59228516 132.99731445 C-29.52932594 133.05143895 -33.01415986 132.63697917 -37.48681641 128.59692383 C-38.36181641 125.84692383 -38.36181641 125.84692383 -38.48681641 123.59692383 C-39.14681641 123.59692383 -39.80681641 123.59692383 -40.48681641 123.59692383 C-42.89442609 113.40470949 -43.96383403 103.28703081 -44.67431641 92.84692383 C-44.7997583 91.01931519 -44.7997583 91.01931519 -44.92773438 89.15478516 C-46.24266195 68.27854258 -45.39708599 46.89596116 -42.11181641 26.22192383 C-42.01022217 25.54693848 -41.90862793 24.87195313 -41.80395508 24.17651367 C-40.91031887 19.1503705 -38.9268743 15.01816306 -36.48681641 10.59692383 C-35.82681641 10.59692383 -35.16681641 10.59692383 -34.48681641 10.59692383 C-34.15681641 9.60692383 -33.82681641 8.61692383 -33.48681641 7.59692383 C-32.82681641 7.59692383 -32.16681641 7.59692383 -31.48681641 7.59692383 C-31.48681641 6.93692383 -31.48681641 6.27692383 -31.48681641 5.59692383 C-20.90067436 0.76917773 -11.5367339 -0.16640552 0 0 Z M8.51318359 38.59692383 C7.79546321 40.73210228 7.79546321 40.73210228 7.51318359 42.59692383 C6.79130859 41.85442383 6.06943359 41.11192383 5.32568359 40.34692383 C0.80147774 35.58438248 0.80147774 35.58438248 -5.04931641 33.09692383 C-8.25737398 33.75498692 -9.4330039 35.10300864 -11.48681641 37.59692383 C-13.2852995 41.19389001 -12.5353265 44.81521888 -11.48681641 48.59692383 C-7.46658875 55.52443476 -1.53555862 61.57255272 5.63818359 65.15942383 C8.53051624 65.84977891 8.53051624 65.84977891 11.13818359 64.53442383 C13.69299276 62.4502374 15.50777808 60.203951 17.51318359 57.59692383 C18.50318359 56.93692383 19.49318359 56.27692383 20.51318359 55.59692383 C24.52631232 49.47212499 27.43278133 43.82478575 26.23583984 36.43676758 C25.35648173 34.19796936 24.3966197 33.0847934 22.51318359 31.59692383 C15.73792824 30.29399011 12.30504692 33.3268765 8.51318359 38.59692383 Z " fill="#2C2829" transform="translate(45.48681640625,-0.596923828125)"/>
<path d="M0 0 C4.85967024 2.50346649 8.27856704 6.08552441 12 10 C11.67 10.66 11.34 11.32 11 12 C9.68127338 11.60348083 8.37002899 11.18201309 7.0625 10.75 C6.33160156 10.51796875 5.60070312 10.2859375 4.84765625 10.046875 C3 9 3 9 2.24609375 7.015625 C2 5 2 5 2 3 C1.34 2.67 0.68 2.34 0 2 C0 1.34 0 0.68 0 0 Z " fill="#737272" transform="translate(89,89)"/>
<path d="M0 0 C4.875 3.625 4.875 3.625 6 7 C5.01 7.33 4.02 7.66 3 8 C2.34 7.67 1.68 7.34 1 7 C0.59270772 4.67843403 0.25561323 2.3431213 0 0 Z " fill="#7D7B7C" transform="translate(35,50)"/>
<path d="M0 0 C-5.625 5 -5.625 5 -9 5 C-8.67 4.01 -8.34 3.02 -8 2 C-7.34 2 -6.68 2 -6 2 C-6 1.34 -6 0.68 -6 0 C-3.50907189 -1.24546405 -2.58919267 -0.7767578 0 0 Z " fill="#787878" transform="translate(20,5)"/>
</svg>
